<svg width="150" height="150" viewBox="0 0 150 150" fill="none" xmlns="http://www.w3.org/2000/svg">
    <style>
     .idea1-a {animation:idea1-a 1.4s infinite;}
     .idea1-b {animation:idea1-b 1.4s infinite;}
     .idea1-c {animation:idea1-c 1.4s infinite;}
     .idea1-d {animation:idea1-d 1.4s infinite;}
     .idea1-e {animation:idea1-e 1.4s infinite;}
     .idea1-f {animation:idea1-f 1.4s infinite;}
     .idea1-g {animation:idea1-g 1.4s infinite;}
     @keyframes idea1-a {
         0%{opacity: 0;}
         20%{transform:translate3d(0, 0, 0); opacity: 0;}
         60%{opacity: .8;}
         70%{transform:translate3d(0, -4px, 0); opacity: .8;}
         90%{opacity: 0;}
         100%{transform:translate3d(0, -4px, 0); opacity: 0;}
     }
     @keyframes idea1-b {
         0%{opacity: 0;}
         20%{transform:translate3d(0, 0, 0); opacity: 0;}
         60%{opacity: .8;}
         70%{transform:translate3d(4px, 0, 0); opacity: .8;}
         90%{opacity: 0;}
         100%{transform:translate3d(4px, 0, 0); opacity: 0;}
     }
     @keyframes idea1-c {
         0%{opacity: 0;}
         20%{transform:translate3d(0, 0, 0); opacity: 0;}
         60%{opacity: .8;}
         70%{transform:translate3d(-4px, 0, 0); opacity: .8;}
         90%{opacity: 0;}
         100%{transform:translate3d(-4px, 0, 0); opacity: 0;}
     }
     @keyframes idea1-d {
         0%{opacity: 0;}
         20%{transform:translate3d(0, 0, 0); opacity: 0;}
         60%{opacity: .8;}
         70%{transform:translate3d(4px, -4px, 0); opacity: .8;}
         90%{opacity: 0;}
         100%{transform:translate3d(4px, -4px, 0); opacity: 0;}
     }
     @keyframes idea1-e {
         0%{opacity: 0;}
         20%{transform:translate3d(0, 0, 0); opacity: 0;}
         60%{opacity: .8;}
         70%{transform:translate3d(-4px, -4px, 0); opacity: .8;}
         90%{opacity: 0;}
         100%{transform:translate3d(-4px, -4px, 0); opacity: 0;}
     }
     @keyframes idea1-f {
         0%{opacity: 0;}
         20%{transform:translate3d(0, 0, 0); opacity: 0;}
         60%{opacity: .8;}
         70%{transform:translate3d(-4px, 4px, 0); opacity: .8;}
         90%{opacity: 0;}
         100%{transform:translate3d(-4px, 4px, 0); opacity: 0;}
     }
     @keyframes idea1-g {
         0%{opacity: 0;}
         20%{transform:translate3d(0, 0, 0); opacity: 0;}
         60%{opacity: .8;}
         70%{transform:translate3d(4px, 4px, 0); opacity: .8;}
         90%{opacity: 0;}
         100%{transform:translate3d(4px, 4px, 0); opacity: 0;}
     }
     @media (prefers-reduced-motion: reduce) {
         .idea1-a, .idea1-b, .idea1-c, .idea1-d, .idea1-e, .idea1-f, .idea1-g {
             animation: none;
         }
     }
    </style>
    
    <path class="fillCls11" d="M59.3582 45.603C59.3582 35.6635 51.36 27.607 41.4399 27.5294C31.4421 27.4517 23.2109 35.6052 23.2109 45.603C23.2109 52.417 26.9771 58.338 32.5487 61.4247C33.5776 61.9877 34.1794 63.0749 34.1794 64.2396V71.2866H48.3704V64.2396C48.3704 63.0749 48.9916 61.9877 50.0205 61.4053C55.5921 58.338 59.3582 52.417 59.3582 45.603Z" fill="#F9A23C"/>
    <path class="fillCls12" d="M49.0823 43.6805C51.1838 43.6805 52.8873 41.977 52.8873 39.8755C52.8873 37.7741 51.1838 36.0706 49.0823 36.0706C46.9809 36.0706 45.2773 37.7741 45.2773 39.8755C45.2773 41.977 46.9809 43.6805 49.0823 43.6805Z" fill="#FFDFBB"/>
    <path class="strokeCls1 idea1-b" d="M61.998 45.71L68.876 45.71" stroke="#1596DE" stroke-width="2"/>
    <path class="strokeCls1 idea1-c" d="M13.8457 45.71L20.7237 45.71" stroke="#1596DE" stroke-width="2"/>
    <path class="strokeCls1 idea1-g" d="M56.2656 60.6116L61.1291 65.475" stroke="#1596DE" stroke-width="2"/>
    <path class="strokeCls1 idea1-e" d="M21.5977 25.9448L26.4611 30.8083" stroke="#1596DE" stroke-width="2"/>
    <path class="strokeCls1 idea1-d" d="M56.2656 30.8088L61.1291 25.9454" stroke="#1596DE" stroke-width="2"/>
    <path class="strokeCls1 idea1-f" d="M21.5977 65.4751L26.4611 60.6116" stroke="#1596DE" stroke-width="2"/>
    <path class="strokeCls1 idea1-a" d="M41.3652 25.072L41.3652 18.1941" stroke="#1596DE" stroke-width="2"/>
    <circle class="fillCls9" cx="41.1277" cy="82.4893" r="1.76636" fill="#A2E6F2"/>
    <path class="fillCls10" d="M43.4485 82.2741H39.2941C36.9063 82.2741 34.9844 80.3328 34.9844 77.9644H47.7777C47.7582 80.3522 45.8169 82.2741 43.4485 82.2741Z" fill="#36C2DB"/>
    <path class="fillCls10" d="M47.9356 75.9265H34.657C34.0163 75.9265 33.4922 75.4023 33.4922 74.7617C33.4922 74.1211 34.0163 73.5969 34.657 73.5969H47.9356C48.5762 73.5969 49.1004 74.1211 49.1004 74.7617C49.0809 75.4023 48.5568 75.9265 47.9356 75.9265Z" fill="#36C2DB"/>
    <path class="fillCls9" d="M47.9356 73.6365H34.657C34.0163 73.6365 33.4922 73.1123 33.4922 72.4717C33.4922 71.831 34.0163 71.3069 34.657 71.3069H47.9356C48.5762 71.3069 49.1004 71.831 49.1004 72.4717C49.0809 73.1123 48.5568 73.6365 47.9356 73.6365Z" fill="#A2E6F2"/>
    <path class="fillCls9" d="M47.9356 78.2776H34.657C34.0163 78.2776 33.4922 77.7534 33.4922 77.1128C33.4922 76.4722 34.0163 75.948 34.657 75.948H47.9356C48.5762 75.948 49.1004 76.4722 49.1004 77.1128C49.0809 77.7534 48.5568 78.2776 47.9356 78.2776Z" fill="#A2E6F2"/>
    <path class="fillCls2" d="M65.9275 94.34L68.1993 94.3908C85.9424 94.8223 102.645 86.0269 112.329 71.1395L115.057 56.709H138.943C141.672 56.709 143.677 59.2727 143.03 61.9126C139.984 74.2617 130.567 105.052 110.412 115.002C84.9778 127.567 66.1559 112.908 66.1559 112.908L58.1094 107.273L65.9275 94.34Z" fill="#072A3D"/>
    <path class="fillCls2" d="M38.8186 126.717C36.9402 127.237 34.9603 127.199 33.0439 127.555C31.3051 127.872 29.5029 128.646 28.5383 130.08C28.4114 130.271 28.551 130.537 28.7794 130.55C35.4807 130.778 42.1946 131.07 48.8578 130.347C49.3528 130.296 49.7462 129.89 49.7716 129.382C49.8731 127.491 50.127 125.245 50.5331 123.531C50.5712 123.366 43.8826 122.402 43.1465 122.909C42.55 123.315 42.3215 124.496 41.7758 125.054C40.9889 125.867 39.9101 126.412 38.8186 126.717Z" fill="#072A3D"/>
    <path class="fillCls2" d="M99.2138 119.002L97.9609 119.269L99.8028 121.661H101.064L99.2138 119.002Z" fill="#072A3D"/>
    <path class="fillCls8" d="M62.0154 94.2126L64.2872 94.2633C82.0303 94.6949 98.7326 85.8995 108.416 71.0121L111.145 56.5815H135.031C137.76 56.5815 139.765 59.1453 139.118 61.7852C136.072 74.1342 126.654 104.924 106.5 114.875C81.0657 127.44 62.2438 112.781 62.2438 112.781L54.1973 107.145L62.0154 94.2126Z" fill="#B7E3F0"/>
    <path class="fillCls1" d="M88.9891 108.707L73.3021 92.3724C73.3021 92.3724 71.4237 91.8774 69.5326 91.7886C68.898 90.1006 67.9715 88.603 66.5374 87.6257C65.0397 86.6104 63.1741 86.3184 61.4099 86.5723C55.4702 87.4226 51.7896 93.54 47.6013 97.4999C43.0196 101.84 38.2348 105.927 33.6657 110.28C33.0312 110.877 26.2791 117.642 26.4061 117.756C28.7033 119.977 32.0031 120.523 35.0999 120.98C35.7218 121.068 36.3564 121.157 36.9656 120.98C37.4733 120.84 37.9048 120.51 38.3363 120.205C47.944 113.161 66.9181 97.8298 66.9181 97.8298C75.7643 108.707 88.9891 108.707 88.9891 108.707Z" fill="#F26C5D"/>
    <path class="fillCls3" d="M95.9216 77.7255L97.8254 79.6039L103.676 68.2702L107.776 67.4198L114.134 62.762C114.134 62.762 117.764 65.3892 120.049 66.0237C121.457 66.4172 123.196 69.3236 124.326 71.4939C125.1 72.9915 125.328 74.7176 124.96 76.3675L123.044 84.8456C121.813 90.303 119.452 95.4432 116.101 99.9234C112.56 104.657 107.903 109.785 104.146 110.051C104.146 110.051 91.6191 95.329 91.4922 91.6484L94.4113 86.4067L92.7233 83.513L95.9216 77.7255Z" fill="#21B787"/>
    <path class="fillCls5" d="M98.4219 60.6941C98.8915 60.6687 99.3484 60.6434 99.818 60.618C99.8941 62.2552 99.9703 63.9178 100.63 65.4155C101.29 66.9131 102.674 68.1949 104.311 68.2584C105.834 68.3092 107.217 67.3192 108.74 67.2685C109.959 67.2304 111.101 66.5704 111.977 65.7201C112.852 64.857 113.5 63.8036 114.134 62.7629C113.284 61.8364 112.421 60.8718 112.04 59.6788C111.494 57.9781 112.027 56.1251 111.697 54.3736C111.406 52.8252 110.428 51.4418 109.159 50.49C107.89 49.5381 106.354 48.9923 104.793 48.7385C103.727 48.5608 102.547 48.5481 101.684 49.1954C100.935 49.7665 100.63 50.6803 100.224 51.4926C99.8814 52.178 99.0184 52.8506 98.8534 53.5614C98.6249 54.5132 99.1961 55.9855 99.1453 57.0135C99.1072 58.27 98.8661 59.5265 98.4219 60.6941Z" fill="#FDC584"/>
    <path class="fillCls6" d="M107.038 54.5891C105.465 57.1655 105.579 60.3892 105.757 63.4098C104.513 63.1814 103.37 62.4834 102.558 61.5188C102.114 60.9857 101.403 60.7192 100.718 60.8207L99.9691 60.935C99.8802 60.9476 99.7787 60.9603 99.7025 61.0111C99.5756 61.0873 99.4995 61.2269 99.4487 61.3538C98.9156 62.7753 99.8802 64.4633 99.2583 65.8467C99.1695 66.0497 99.0553 66.2528 99.0806 66.4686C99.1441 67.0016 100.007 67.192 99.9818 67.725C99.9691 67.8773 99.8929 68.0043 99.8422 68.1439C99.6518 68.6896 99.9944 69.3242 100.502 69.6034C101.01 69.8826 101.632 69.8699 102.203 69.7557C102.774 69.6415 103.32 69.4257 103.891 69.3115C105.071 69.0831 106.455 69.248 107.28 68.385C107.876 67.7631 107.939 66.8112 107.952 65.9482C107.965 63.0672 107.609 60.1861 107.635 57.2924C107.635 56.7721 107.66 56.239 107.838 55.744C108.079 55.0714 108.688 54.4875 109.488 54.6399C109.919 54.7287 110.287 55.0206 110.491 55.4267C110.985 56.4548 110.224 57.5716 109.221 57.8509C109.209 58.6758 109.678 59.615 110.402 60.0338C111.125 60.4527 112.064 60.4273 112.775 59.9958C112.064 58.1301 113.092 56.0994 113.321 54.1195C113.575 51.835 112.635 49.4489 110.897 47.9386C109.158 46.4283 106.67 45.8445 104.437 46.4156C102.33 46.9613 100.566 48.4336 98.4841 49.0555C97.7988 49.2586 97.05 49.3855 96.4915 49.8424C95.9331 50.2993 95.7046 51.2512 96.2631 51.7207C96.4788 51.8984 96.7961 51.9873 96.9484 52.2157C96.5931 52.1777 96.4027 52.6853 96.5804 53.0026C96.758 53.3072 97.1388 53.4341 97.4815 53.4976C98.0907 53.6245 98.7126 53.6499 99.3091 53.5103C100.337 53.2691 101.175 52.533 102.051 51.9365C102.698 51.505 103.383 51.1369 104.094 50.845C104.64 50.6293 105.287 50.4516 105.744 50.9719C105.858 51.1115 105.947 51.2765 105.998 51.4542C106.201 52.1777 105.883 52.9011 105.985 53.6245C106.036 54.1195 106.518 54.5891 107.038 54.5891Z" fill="#1C4367"/>
    <path class="fillCls5" d="M87.3905 74.426C87.1113 74.6799 86.921 75.0098 86.794 75.3525C86.1468 77.1801 85.0553 78.8554 83.6465 80.1881C83.913 80.9115 84.5349 81.0004 85.2457 80.7084C85.9564 80.4165 86.1341 80.0612 86.9463 79.16C87.2256 79.1347 87.454 79.4139 87.5302 79.6931C87.6063 79.9723 87.6063 80.2642 87.7332 80.5181C88.0505 81.14 88.9009 81.1653 89.5989 81.1527C89.9416 81.1527 90.4366 81.1907 90.8554 81.3303C91.3123 81.4699 92.6703 83.0437 92.8226 82.5868C93.0765 81.8761 93.5461 80.4419 93.7491 80.0739C94.1426 79.325 94.6248 77.599 94.1045 76.7486C93.673 76.0379 91.7565 75.2891 91.0585 74.9337C90.0051 74.3753 88.5836 73.3218 87.3905 74.426Z" fill="#FDC485"/>
    <path class="fillCls3" d="M93.8519 76.3933L91.5039 82.0284C91.5039 82.0284 91.6435 84.1607 92.9635 84.6049C93.6107 84.8206 96.3268 77.9798 96.3268 77.9798L93.8519 76.3933Z" fill="#21B787"/>
    <path class="fillCls2" d="M55.9807 69.7686L62.5804 90.0246H96.937C96.937 88.8824 96.0105 87.1817 94.8555 87.1817H84.3975L78.1913 69.2483C78.077 68.6644 77.5567 68.2456 76.9728 68.2456H57.1991C56.4122 68.2583 55.8157 68.9944 55.9807 69.7686Z" fill="#072A3D"/>
    <path class="fillCls1" d="M104.171 109.405C99.8558 114.025 93.9287 115.674 87.7859 113.847C82.3412 112.222 74.688 105.876 65.3215 91.9155C63.1386 103.16 62.1359 102.907 60.2702 107.971C58.2142 113.555 53.4167 119.723 51.2718 125.269C48.0862 125.282 44.9132 124.736 41.918 123.67C43.5552 115.243 52.211 85.7093 54.2797 79.8964C54.5843 79.0334 54.9651 78.1069 55.752 77.6119C56.1327 77.3708 56.5642 77.2693 57.0084 77.1931C59.2676 76.8123 61.5902 77.0154 63.7858 77.7135C70.1698 79.7441 76.1984 83.0694 81.935 86.5088C85.5522 88.6791 89.182 90.8367 92.7992 93.007C95.0329 94.3396 97.2921 95.6977 99.1577 97.5126C102.191 100.482 104.019 105.153 104.171 109.405Z" fill="#F26C5D"/>
    <path class="fillCls2" d="M110.233 115.089L109.164 115.599L117.78 126.304H119.11L110.233 115.089Z" fill="#072A3D"/>
    <path class="fillCls2" d="M76.8829 119.019L78.0586 119.262L74.0711 128.408H72.8477L76.8829 119.019Z" fill="#072A3D"/>
    <path class="fillCls2" d="M61.3148 112.129L62.2891 112.808L57.33 121.585H56.084L61.3148 112.129Z" fill="#072A3D"/>
    <path class="fillCls2" d="M33.3258 118.403C32.3613 118.365 31.4855 117.832 30.5336 117.641C29.8102 117.502 29.0614 117.565 28.376 117.832C27.7415 118.073 27.183 118.492 26.6119 118.847C24.0609 120.446 21.0275 121.157 18.0323 121.627C17.0423 121.779 16.0524 121.906 15.1132 122.248C14.174 122.591 13.2983 123.162 12.8033 124C12.4606 124.888 16.2047 124.508 17.9054 124.533C22.5252 124.584 27.145 124.634 31.7647 124.406C32.374 124.381 33.0339 124.33 33.4908 123.936C34.1508 123.378 34.1508 122.413 34.5696 121.728C35.0392 120.954 35.5723 120.256 36.4226 119.837C36.4988 119.659 36.3211 119.444 36.1815 119.329C35.5088 118.771 34.6458 118.454 33.77 118.441C33.567 118.441 33.3512 118.454 33.1481 118.403C33.1355 118.225 33.2497 118.53 33.3258 118.403Z" fill="#072A3D"/>
    <path class="fillCls7" fill-rule="evenodd" clip-rule="evenodd" d="M98.9049 59.0223L98.837 59.3262C98.837 59.3262 98.4613 59.0223 98.2667 58.5424C98.254 58.5113 98.242 58.4817 98.2304 58.4533C98.0822 58.0896 98.015 57.9249 97.9346 57.4037C97.8155 56.6321 97.8153 55.499 98.3127 55.4406C98.7804 55.3859 99.1267 56.4124 99.1267 56.4124C99.1267 56.4124 99.159 56.7213 99.1602 56.9199C99.1616 57.1391 99.1267 57.4801 99.1267 57.4801L98.9831 56.8481L98.1547 56.9869C98.1547 56.9869 98.2397 57.7441 98.4229 58.1888C98.5661 58.5364 98.9049 59.0223 98.9049 59.0223ZM98.1436 56.707L98.8891 56.5803C98.8891 56.5803 98.7253 55.6115 98.3322 55.6875C98.0345 55.7453 98.1436 56.707 98.1436 56.707Z" fill="#0A2A3C"/>
    <path class="fillCls7" d="M99.2155 55.9559C99.0182 55.9765 98.9277 56.0422 98.9277 56.0422L99.0593 56.2766C99.0593 56.2766 99.1662 56.2233 99.3265 56.2067C99.4868 56.19 99.6512 56.2313 99.6512 56.2313V55.9765C99.6512 55.9765 99.3838 55.9298 99.2155 55.9559Z" fill="#0A2A3C"/>
    <path class="fillCls7" fill-rule="evenodd" clip-rule="evenodd" d="M100.277 54.7333C100.96 54.6475 101.444 55.7894 101.631 56.6554C101.829 57.5755 101.751 58.8932 101.075 58.9983C100.399 59.1035 99.8417 57.848 99.6966 56.9183C99.5608 56.0486 99.5941 54.8192 100.277 54.7333ZM100.371 55.0926C100.871 55.0098 101.242 55.9553 101.391 56.6752C101.549 57.4401 101.511 58.5415 101.017 58.6402C100.523 58.7389 100.096 57.6998 99.9768 56.926C99.8649 56.2022 99.8719 55.1753 100.371 55.0926Z" fill="#0A2A3C"/>
    <path class="fillCls7" d="M106.776 54.5066L101.473 56.2203L101.542 56.4754L106.987 54.6981L106.776 54.5066Z" fill="#0A2A3C"/>
    <path class="fillCls4" d="M117.131 89.8527C120.367 86.4359 124.19 80.0869 124.19 80.0869C124.19 80.0869 125.593 75.7164 124.984 72.9979C124.37 70.2541 121.214 66.7673 121.214 66.7673C121.214 66.7673 116.963 72.2721 114.424 75.8511C111.067 80.5835 106.301 88.2908 106.301 88.2908L96.3901 78.2512L93.2832 84.4622C93.2832 84.4622 96.748 89.9902 99.6657 92.9278C102.013 95.2912 102.97 98.2371 106.301 98.2879C106.301 98.2879 113.444 93.745 117.131 89.8527Z" fill="#4BD2A7"/>
</svg>
